<svg xmlns="http://www.w3.org/2000/svg" viewBox="0 0 320 220" role="img" aria-label="resolver and coder loop">
  <defs>
    <linearGradient id="bg" x1="0" x2="1" y1="0" y2="1">
      <stop offset="0" stop-color="#0f172a"/>
      <stop offset="1" stop-color="#164e63"/>
    </linearGradient>
    <linearGradient id="line" x1="0" x2="1">
      <stop offset="0" stop-color="#67e8f9"/>
      <stop offset="1" stop-color="#f472b6"/>
    </linearGradient>
    <filter id="softShadow" x="-20%" y="-20%" width="140%" height="140%">
      <feDropShadow dx="0" dy="14" stdDeviation="14" flood-color="#020617" flood-opacity="0.28"/>
    </filter>
  </defs>
  <rect x="14" y="14" width="292" height="192" rx="28" fill="url(#bg)"/>
  <circle cx="56" cy="54" r="46" fill="#22d3ee" opacity="0.08"/>
  <circle cx="264" cy="166" r="58" fill="#f472b6" opacity="0.09"/>

  <g filter="url(#softShadow)">
    <rect x="42" y="66" width="96" height="86" rx="18" fill="#082f49" stroke="#67e8f9" stroke-width="3"/>
    <rect x="182" y="66" width="96" height="86" rx="18" fill="#3b0764" stroke="#f472b6" stroke-width="3"/>
  </g>

  <path d="M148 82 C163 70 177 70 192 82" fill="none" stroke="url(#line)" stroke-width="6" stroke-linecap="round"/>
  <path d="M184 70 L197 83 L181 92" fill="none" stroke="#f472b6" stroke-width="6" stroke-linecap="round" stroke-linejoin="round"/>

  <path d="M172 136 C157 150 143 150 128 136" fill="none" stroke="#a7f3d0" stroke-width="6" stroke-linecap="round"/>
  <path d="M136 148 L123 135 L139 126" fill="none" stroke="#a7f3d0" stroke-width="6" stroke-linecap="round" stroke-linejoin="round"/>

  <text x="90" y="102" text-anchor="middle" font-family="Inter, Arial, sans-serif" font-size="16" font-weight="800" fill="#e0f2fe">resolver</text>
  <text x="90" y="123" text-anchor="middle" font-family="Inter, Arial, sans-serif" font-size="11" font-weight="700" fill="#67e8f9">plan + verify</text>
  <text x="230" y="102" text-anchor="middle" font-family="Inter, Arial, sans-serif" font-size="16" font-weight="800" fill="#fce7f3">coder</text>
  <text x="230" y="123" text-anchor="middle" font-family="Inter, Arial, sans-serif" font-size="11" font-weight="700" fill="#f9a8d4">patch + test</text>

  <rect x="104" y="162" width="112" height="22" rx="11" fill="#020617" opacity="0.45"/>
  <circle cx="123" cy="173" r="4" fill="#34d399"/>
  <text x="138" y="177" font-family="Inter, Arial, sans-serif" font-size="11" font-weight="800" fill="#d1fae5">verified loop</text>
</svg>
